<mxfile host="app.diagrams.net" modified="2024-03-19T01:45:29.562Z" agent="Mozilla/5.0 (X11; Linux x86_64) AppleWebKit/537.36 (KHTML, like Gecko) Chrome/122.0.0.0 Safari/537.36" version="24.0.4" etag="tQ-xXOlcUnE8xmLNc-xa" type="github">
  <diagram name="第 1 页" id="wS52gVpnEfEMt18jIiBJ">
    <mxGraphModel>
      <root>
        <mxCell id="0" />
        <mxCell id="1" parent="0" />
      </root>
    </mxGraphModel>
  </diagram>
</mxfile>
